HIERARCHY
ROOT Hips
{
	OFFSET 0.000000 71.427986 0.000000
	CHANNELS 6 Xposition Yposition Zposition Xrotation Yrotation Zrotation
	JOINT Pelvis
	{
		OFFSET 0.000000 0.000000 0.000000
		CHANNELS 3 Xrotation Yrotation Zrotation
		JOINT LeftUpLeg
		{
			OFFSET 6.797100 -2.508499 -1.318700
			CHANNELS 3 Xrotation Yrotation Zrotation
			JOINT LeftLeg
			{
				OFFSET 0.069008 -29.241863 0.690200
				CHANNELS 3 Xrotation Yrotation Zrotation
				JOINT LeftFoot
				{
					OFFSET -0.069008 -29.568123 -0.266800
					CHANNELS 3 Xrotation Yrotation Zrotation
					JOINT LeftToeBase
					{
						OFFSET 3.145500 -8.631000 16.059900
						CHANNELS 3 Xrotation Yrotation Zrotation
						End Site
						{
							OFFSET 0.000000 18.501587 0.000000
						}
					}
				}
			}
			JOINT Left_ShortSleeve
			{
				OFFSET 0.265923 -10.480953 1.153800
				CHANNELS 3 Xrotation Yrotation Zrotation
				End Site
				{
					OFFSET 1.725763 19.823879 0.000000
				}
			}
		}
		JOINT RightUpLeg
		{
			OFFSET -6.797100 -2.508499 -1.318700
			CHANNELS 3 Xrotation Yrotation Zrotation
			JOINT RightLeg
			{
				OFFSET -0.082453 -29.241932 0.688000
				CHANNELS 3 Xrotation Yrotation Zrotation
				JOINT RightFoot
				{
					OFFSET 0.082453 -29.568058 -0.264600
					CHANNELS 3 Xrotation Yrotation Zrotation
					JOINT RightToeBase
					{
						OFFSET -3.115300 -8.682800 16.113400
						CHANNELS 3 Xrotation Yrotation Zrotation
						End Site
						{
							OFFSET 0.000000 18.567114 0.000000
						}
					}
				}
			}
			JOINT Right_ShortSleeve
			{
				OFFSET -0.265923 -10.480953 1.153800
				CHANNELS 3 Xrotation Yrotation Zrotation
				End Site
				{
					OFFSET -1.725766 19.823910 0.000000
				}
			}
		}
	}
	JOINT Spine
	{
		OFFSET 0.000000 13.368103 0.470500
		CHANNELS 3 Xrotation Yrotation Zrotation
		JOINT Spine1
		{
			OFFSET 0.147000 13.837402 0.538800
			CHANNELS 3 Xrotation Yrotation Zrotation
			JOINT Spine2
			{
				OFFSET 0.168000 16.242897 -1.435500
				CHANNELS 3 Xrotation Yrotation Zrotation
				JOINT Neck
				{
					OFFSET 0.217200 18.631500 -1.679100
					CHANNELS 3 Xrotation Yrotation Zrotation
					JOINT Head
					{
						OFFSET 0.000000 6.599396 1.385900
						CHANNELS 3 Xrotation Yrotation Zrotation
						JOINT Hat
						{
							OFFSET -0.532200 27.220596 -10.096100
							CHANNELS 3 Xrotation Yrotation Zrotation
							End Site
							{
								OFFSET 0.000000 22.029861 0.000000
							}
						}
						JOINT HairD
						{
							OFFSET -10.777400 17.437393 -1.325900
							CHANNELS 3 Xrotation Yrotation Zrotation
							JOINT HairD1
							{
								OFFSET -3.290299 -11.051193 1.062200
								CHANNELS 3 Xrotation Yrotation Zrotation
								End Site
								{
									OFFSET 0.000000 11.579437 0.000000
								}
							}
						}
						JOINT HairB
						{
							OFFSET -10.777400 17.437393 1.467900
							CHANNELS 3 Xrotation Yrotation Zrotation
							JOINT HairB1
							{
								OFFSET -1.561200 -12.956299 3.590200
								CHANNELS 3 Xrotation Yrotation Zrotation
								End Site
								{
									OFFSET 0.000000 13.534866 0.000000
								}
							}
						}
						JOINT HairA
						{
							OFFSET 9.713100 17.437393 1.467900
							CHANNELS 3 Xrotation Yrotation Zrotation
							JOINT HairA1
							{
								OFFSET 1.561200 -12.956299 3.590200
								CHANNELS 3 Xrotation Yrotation Zrotation
								End Site
								{
									OFFSET 0.000000 13.534866 0.000000
								}
							}
						}
						JOINT HairC
						{
							OFFSET 9.713100 17.437393 -1.325900
							CHANNELS 3 Xrotation Yrotation Zrotation
							JOINT HairC1
							{
								OFFSET 3.290300 -11.051193 1.062200
								CHANNELS 3 Xrotation Yrotation Zrotation
								End Site
								{
									OFFSET 0.000000 11.579437 0.000000
								}
							}
						}
					}
				}
				JOINT LeftShoulder
				{
					OFFSET 5.101800 15.108002 -2.763700
					CHANNELS 3 Xrotation Yrotation Zrotation
					JOINT LeftArm
					{
						OFFSET 9.825497 2.506317 -1.597400
						CHANNELS 3 Xrotation Yrotation Zrotation
						JOINT LeftForeArm
						{
							OFFSET 21.966244 0.000000 0.000000
							CHANNELS 3 Xrotation Yrotation Zrotation
							JOINT LeftHand
							{
								OFFSET 33.879036 0.000000 0.000000
								CHANNELS 3 Xrotation Yrotation Zrotation
								JOINT LeftHandThumb1
								{
									OFFSET 6.715286 -2.359680 3.363841
									CHANNELS 3 Xrotation Yrotation Zrotation
									JOINT LeftHandThumb2
									{
										OFFSET 2.507072 -1.447464 1.447461
										CHANNELS 3 Xrotation Yrotation Zrotation
										JOINT LeftHandThumb3
										{
											OFFSET 2.898338 -1.673355 1.673357
											CHANNELS 3 Xrotation Yrotation Zrotation
											End Site
											{
												OFFSET -0.295959 3.727692 -0.131651
											}
										}
									}
								}
								JOINT LeftHandIndex1
								{
									OFFSET 14.190811 -0.254547 3.840278
									CHANNELS 3 Xrotation Yrotation Zrotation
									JOINT LeftHandIndex2
									{
										OFFSET 3.551727 0.000000 -0.000000
										CHANNELS 3 Xrotation Yrotation Zrotation
										JOINT LeftHandIndex3
										{
											OFFSET 2.894196 0.000000 0.000000
											CHANNELS 3 Xrotation Yrotation Zrotation
											End Site
											{
												OFFSET -1.000603 2.690872 0.366626
											}
										}
									}
								}
								JOINT LeftHandMiddle1
								{
									OFFSET 13.776489 0.000000 0.000000
									CHANNELS 3 Xrotation Yrotation Zrotation
									JOINT LeftHandMiddle2
									{
										OFFSET 3.438232 0.000000 0.000000
										CHANNELS 3 Xrotation Yrotation Zrotation
										JOINT LeftHandMiddle3
										{
											OFFSET 3.691551 0.000000 0.000000
											CHANNELS 3 Xrotation Yrotation Zrotation
											End Site
											{
												OFFSET -1.082298 3.499527 0.457670
											}
										}
									}
								}
								JOINT LeftHandRing1
								{
									OFFSET 13.966164 -0.268127 -3.067488
									CHANNELS 3 Xrotation Yrotation Zrotation
									JOINT LeftHandRing2
									{
										OFFSET 3.162567 0.000000 0.000000
										CHANNELS 3 Xrotation Yrotation Zrotation
										JOINT LeftHandRing3
										{
											OFFSET 3.324348 0.000000 0.000000
											CHANNELS 3 Xrotation Yrotation Zrotation
											End Site
											{
												OFFSET -0.861900 3.184998 0.405154
											}
										}
									}
								}
								JOINT LeftHandPinky1
								{
									OFFSET 13.131393 -0.168503 -5.746925
									CHANNELS 3 Xrotation Yrotation Zrotation
									JOINT LeftHandPinky2
									{
										OFFSET 2.849182 0.000000 0.000000
										CHANNELS 3 Xrotation Yrotation Zrotation
										JOINT LeftHandPinky3
										{
											OFFSET 2.805038 0.000000 0.000000
											CHANNELS 3 Xrotation Yrotation Zrotation
											End Site
											{
												OFFSET -0.882500 2.642609 0.325652
											}
										}
									}
								}
							}
							JOINT Left_Sleeve
							{
								OFFSET 6.592125 -0.646545 0.805568
								CHANNELS 3 Xrotation Yrotation Zrotation
								End Site
								{
									OFFSET -0.000179 20.275787 -0.000000
								}
							}
						}
					}
				}
				JOINT RightShoulder
				{
					OFFSET -5.731700 15.108002 -2.763700
					CHANNELS 3 Xrotation Yrotation Zrotation
					JOINT RightArm
					{
						OFFSET -9.825497 2.506317 -1.597400
						CHANNELS 3 Xrotation Yrotation Zrotation
						JOINT RightForeArm
						{
							OFFSET -21.966242 0.000000 0.000000
							CHANNELS 3 Xrotation Yrotation Zrotation
							JOINT RightHand
							{
								OFFSET -33.879032 0.000000 0.000000
								CHANNELS 3 Xrotation Yrotation Zrotation
								JOINT RightHandThumb1
								{
									OFFSET -6.715286 -2.359680 3.363841
									CHANNELS 3 Xrotation Yrotation Zrotation
									JOINT RightHandThumb2
									{
										OFFSET -2.507072 -1.447464 1.447461
										CHANNELS 3 Xrotation Yrotation Zrotation
										JOINT RightHandThumb3
										{
											OFFSET -2.898338 -1.673355 1.673357
											CHANNELS 3 Xrotation Yrotation Zrotation
											End Site
											{
												OFFSET 0.295959 3.727692 -0.131651
											}
										}
									}
								}
								JOINT RightHandIndex1
								{
									OFFSET -14.190811 -0.254547 3.840278
									CHANNELS 3 Xrotation Yrotation Zrotation
									JOINT RightHandIndex2
									{
										OFFSET -3.551727 0.000000 -0.000000
										CHANNELS 3 Xrotation Yrotation Zrotation
										JOINT RightHandIndex3
										{
											OFFSET -2.894196 0.000000 0.000000
											CHANNELS 3 Xrotation Yrotation Zrotation
											End Site
											{
												OFFSET 1.000603 2.690872 0.366626
											}
										}
									}
								}
								JOINT RightHandMiddle1
								{
									OFFSET -13.776489 0.000000 0.000000
									CHANNELS 3 Xrotation Yrotation Zrotation
									JOINT RightHandMiddle2
									{
										OFFSET -3.438232 0.000000 0.000000
										CHANNELS 3 Xrotation Yrotation Zrotation
										JOINT RightHandMiddle3
										{
											OFFSET -3.691551 0.000000 0.000000
											CHANNELS 3 Xrotation Yrotation Zrotation
											End Site
											{
												OFFSET 1.082298 3.499527 0.457670
											}
										}
									}
								}
								JOINT RightHandRing1
								{
									OFFSET -13.966164 -0.268127 -3.067488
									CHANNELS 3 Xrotation Yrotation Zrotation
									JOINT RightHandRing2
									{
										OFFSET -3.162567 0.000000 0.000000
										CHANNELS 3 Xrotation Yrotation Zrotation
										JOINT RightHandRing3
										{
											OFFSET -3.324348 0.000000 0.000000
											CHANNELS 3 Xrotation Yrotation Zrotation
											End Site
											{
												OFFSET 0.861900 3.184998 0.405154
											}
										}
									}
								}
								JOINT RightHandPinky1
								{
									OFFSET -13.131393 -0.168503 -5.746925
									CHANNELS 3 Xrotation Yrotation Zrotation
									JOINT RightHandPinky2
									{
										OFFSET -2.849182 0.000000 0.000000
										CHANNELS 3 Xrotation Yrotation Zrotation
										JOINT RightHandPinky3
										{
											OFFSET -2.805038 0.000000 0.000000
											CHANNELS 3 Xrotation Yrotation Zrotation
											End Site
											{
												OFFSET 0.882500 2.642609 0.325652
											}
										}
									}
								}
							}
							JOINT Right_Sleeve
							{
								OFFSET -6.592125 -0.646545 0.805568
								CHANNELS 3 Xrotation Yrotation Zrotation
								End Site
								{
									OFFSET 0.000179 20.275787 -0.000000
								}
							}
						}
					}
				}
				JOINT Bind_Right_JacketString
				{
					OFFSET -3.534800 11.969597 7.200700
					CHANNELS 3 Xrotation Yrotation Zrotation
					JOINT Bind_Right_JacketString1
					{
						OFFSET -0.319900 -6.102600 2.794100
						CHANNELS 3 Xrotation Yrotation Zrotation
						End Site
						{
							OFFSET 0.000000 6.719452 0.000000
						}
					}
				}
				JOINT Bind_Left_JacketString
				{
					OFFSET 2.904800 11.969597 7.200700
					CHANNELS 3 Xrotation Yrotation Zrotation
					JOINT Bind_Left_JacketString1
					{
						OFFSET 0.364800 -5.904503 3.186800
						CHANNELS 3 Xrotation Yrotation Zrotation
						End Site
						{
							OFFSET 0.000000 6.719513 0.000000
						}
					}
				}
				JOINT HairE
				{
					OFFSET 5.915200 17.612701 -11.592200
					CHANNELS 3 Xrotation Yrotation Zrotation
					JOINT HairE1
					{
						OFFSET 0.289200 -7.171898 -1.284500
						CHANNELS 3 Xrotation Yrotation Zrotation
						End Site
						{
							OFFSET 0.000000 7.291756 0.000000
						}
					}
				}
				JOINT HairF
				{
					OFFSET -0.864800 17.612701 -11.592200
					CHANNELS 3 Xrotation Yrotation Zrotation
					JOINT HairF1
					{
						OFFSET 0.000000 -14.087097 -2.127501
						CHANNELS 3 Xrotation Yrotation Zrotation
						End Site
						{
							OFFSET 0.000000 14.246841 0.000000
						}
					}
				}
				JOINT HairG
				{
					OFFSET -8.087700 17.612701 -11.592200
					CHANNELS 3 Xrotation Yrotation Zrotation
					JOINT HairG1
					{
						OFFSET -0.293600 -6.081398 -0.910100
						CHANNELS 3 Xrotation Yrotation Zrotation
						End Site
						{
							OFFSET 0.000000 6.156120 0.000000
						}
					}
				}
			}
		}
	}
	JOINT Pouch
	{
		OFFSET 0.000000 4.394501 10.847300
		CHANNELS 3 Xrotation Yrotation Zrotation
		End Site
		{
			OFFSET 0.000000 21.880577 0.000000
		}
	}
	JOINT Bag
	{
		OFFSET -13.229000 4.813004 -0.593300
		CHANNELS 3 Xrotation Yrotation Zrotation
		End Site
		{
			OFFSET 0.000000 21.880577 0.000000
		}
	}
	JOINT OccupyGuyFacialAnim_Joint
	{
		OFFSET 1.000000 -70.206398 -1.655000
		CHANNELS 3 Xrotation Yrotation Zrotation
		End Site
		{
			OFFSET 0.000000 21.880577 0.000000
		}
	}
}
MOTION
Frames: 4
Frame Time: 0.033333
-0.079215 69.178223 1.404397 -1.843331 7.892042 -3.139934 -0.000000 0.000000 0.000000 -6.578045 11.605738 17.970156 14.379736 -9.193615 5.726605 -10.707322 -3.908870 -17.311085 -0.000000 -0.000000 -0.000000 0.000000 0.000001 -0.000000 -2.157673 -6.153313 8.445681 21.050834 -9.424608 3.883147 -17.788133 -3.012905 -6.409103 0.000000 0.000000 -0.000000 0.000000 -0.000000 -0.000002 1.798274 -0.632560 2.225362 1.599155 0.049539 3.523366 1.603559 0.155927 3.494269 2.527746 -2.592769 3.197060 -12.459069 -3.478931 -3.466356 -0.000000 0.000000 -0.000000 -0.000000 0.000000 -0.000000 -0.000000 0.000000 -0.000000 -0.000000 0.000000 -0.000000 -0.000000 0.000000 -0.000000 -0.000000 0.000000 -0.000000 -0.000000 0.000000 -0.000000 -0.000000 0.000000 -0.000000 -0.000000 0.000000 -0.000000 -0.294938 -10.842506 -17.334646 10.927674 -8.208617 -51.754170 0.000000 -21.898719 0.000004 -21.849493 8.001267 -8.016376 -5.631765 -6.066175 4.550737 7.230344 21.960023 2.178847 -0.000000 -0.000000 -0.000001 -2.022855 -4.709937 -15.817385 0.320243 1.912146 -19.013326 0.000001 0.000003 -0.000001 0.437693 4.418634 -20.546585 0.320245 1.912152 -19.013382 0.000000 -0.000000 -0.000001 2.950817 10.510850 -22.112213 0.321012 1.914385 -19.036389 -0.000001 0.000000 -0.000002 4.262837 17.529978 -25.778428 0.809014 2.972460 -30.444786 -0.000001 -0.000000 0.000001 0.000003 0.000001 0.000001 4.697613 -0.312497 4.990458 8.045438 9.241348 58.682868 -0.000010 22.183056 0.000025 -2.025062 0.810974 18.758522 -6.901951 8.181167 -4.018424 7.464514 -23.792677 -2.837988 -0.000001 -0.000001 -0.000001 -1.992637 5.229587 14.550659 0.223276 -1.426124 17.794950 0.000003 -0.000002 -0.000004 0.314672 -3.835318 19.453654 0.223285 -1.426128 17.794950 0.000002 -0.000002 -0.000001 2.703315 -9.946656 21.118583 0.223714 -1.427510 17.812776 -0.000001 0.000001 0.000004 3.960652 -16.894492 24.893753 0.594454 -2.278656 29.239306 0.000001 0.000001 -0.000001 -0.000001 0.000001 0.000000 0.000000 0.000001 -0.000000 0.000001 0.000000 0.000000 0.000000 0.000001 0.000000 0.000000 0.000001 0.000000 0.000000 0.000001 -0.000000 0.000001 0.000000 -0.000000 0.000000 0.000001 0.000000 0.000000 0.000001 0.000000 0.000000 0.000001 -0.000000 0.000001 0.000000 -0.000000 -0.000000 0.000000 0.000000 -0.000000 0.000000 0.000000 -0.000000 0.000000 0.000000 
-0.066159 69.161880 1.360466 -1.780551 7.991085 -3.018100 0.000000 -0.000001 0.000000 -6.700063 11.486798 17.810014 14.475198 -9.194737 5.730889 -10.698503 -3.922329 -17.288162 -0.000000 -0.000000 -0.000000 0.000000 -0.000001 0.000001 -2.489204 -6.141951 8.292551 21.469190 -9.537622 3.869703 -17.952403 -3.038568 -6.298769 -0.000000 0.000000 0.000000 -0.000000 0.000000 -0.000000 1.771512 -0.647598 2.225674 1.584831 0.039703 3.533665 1.589162 0.145960 3.504519 2.451784 -2.605556 3.274861 -12.302120 -3.389597 -3.614006 -0.000000 -0.000000 0.000000 -0.000000 -0.000000 0.000000 -0.000000 -0.000000 -0.000000 -0.000000 -0.000000 0.000000 -0.000000 -0.000000 0.000000 -0.000000 -0.000000 0.000000 -0.000000 -0.000000 0.000000 -0.000000 -0.000000 0.000000 -0.000000 -0.000000 0.000000 -0.300606 -10.905375 -17.365843 11.599055 -8.856308 -51.351732 -0.000000 -22.441918 -0.000003 -23.321435 8.502591 -8.296867 -3.111053 -5.682137 4.057952 7.230345 21.960025 2.178849 -0.000000 -0.000000 0.000002 -1.934140 -4.425468 -18.717584 0.668264 2.719118 -27.610346 0.000002 -0.000001 -0.000002 0.549664 4.694830 -23.462776 0.668262 2.719131 -27.610369 -0.000000 0.000001 0.000004 3.368845 10.640417 -25.063517 0.671059 2.724474 -27.669276 -0.000001 -0.000000 -0.000003 4.406004 17.794803 -28.729162 1.310735 3.694452 -39.056890 -0.000000 0.000000 -0.000004 0.000001 -0.000000 -0.000001 4.701144 -0.361964 5.003140 8.077661 9.471697 58.443818 -0.000002 22.245209 -0.000016 -1.808728 0.901019 18.869494 -6.901945 8.181166 -4.018424 7.464512 -23.792681 -2.837989 -0.000003 -0.000001 0.000000 -1.992631 5.229583 14.550666 0.223280 -1.426122 17.794938 -0.000001 -0.000003 -0.000005 0.314672 -3.835310 19.453658 0.223273 -1.426129 17.794950 0.000000 0.000001 -0.000001 2.703318 -9.946661 21.118588 0.223715 -1.427513 17.812792 0.000000 -0.000001 0.000001 3.960650 -16.894480 24.893775 0.594451 -2.278664 29.239271 -0.000002 0.000001 -0.000001 0.000001 0.000000 -0.000002 0.000000 0.000001 -0.000000 0.000000 0.000000 -0.000000 0.000000 0.000001 0.000000 0.000000 0.000001 0.000000 0.000000 0.000001 -0.000000 0.000000 0.000000 -0.000000 0.000000 0.000001 0.000000 0.000000 0.000001 0.000000 0.000000 0.000001 -0.000000 0.000000 0.000000 -0.000000 0.000000 -0.000001 0.000000 0.000000 -0.000001 0.000000 0.000000 -0.000001 0.000000 
-0.045900 69.136833 1.309006 -1.683542 7.976039 -2.898290 -0.000000 0.000001 -0.000000 -6.852548 11.244935 17.603810 14.708360 -8.957960 5.768965 -10.759188 -3.938828 -17.268269 -0.000000 0.000000 0.000000 -0.000000 0.000000 -0.000000 -2.931964 -6.088871 8.112501 22.007655 -9.583035 3.858001 -18.155112 -3.063999 -6.174443 -0.000000 0.000001 0.000000 0.000000 0.000000 -0.000000 1.737206 -0.685456 2.233010 1.566301 0.013537 3.548268 1.570468 0.119469 3.519026 2.365918 -2.632605 3.473167 -12.242463 -3.254338 -3.708223 -0.000001 0.000000 -0.000000 -0.000001 0.000000 -0.000000 -0.000001 0.000000 -0.000000 -0.000001 0.000000 -0.000000 -0.000001 0.000000 -0.000000 -0.000001 0.000000 -0.000000 -0.000001 0.000000 -0.000000 -0.000001 0.000000 -0.000000 -0.000001 0.000000 -0.000000 -0.303237 -11.052240 -17.361286 12.760808 -9.235936 -50.510417 0.000000 -23.799634 -0.000003 -26.785106 8.645297 -9.323547 0.886426 -5.191864 3.129618 7.230344 21.960023 2.178847 -0.000001 0.000001 -0.000000 -1.761691 -3.978543 -23.379288 1.469278 3.881264 -41.456472 0.000003 0.000001 0.000003 0.758918 5.125940 -28.155008 1.469281 3.881271 -41.456468 0.000001 0.000001 -0.000003 4.035456 10.774800 -29.812649 1.477181 3.890184 -41.573046 0.000000 0.000000 0.000001 4.666139 18.204828 -33.483899 2.328100 4.674535 -52.931114 -0.000000 0.000000 0.000001 0.000001 0.000000 0.000002 4.716984 -0.512432 5.094316 7.991469 9.772485 58.074052 -0.000005 22.241116 0.000001 -1.652706 0.981407 18.996520 -6.901945 8.181166 -4.018424 7.464509 -23.792681 -2.837986 0.000003 -0.000001 -0.000002 -1.992633 5.229599 14.550690 0.223279 -1.426132 17.794941 0.000001 -0.000002 -0.000002 0.314669 -3.835307 19.453666 0.223271 -1.426137 17.794941 -0.000000 0.000001 0.000001 2.703321 -9.946651 21.118603 0.223721 -1.427521 17.812770 -0.000001 -0.000000 0.000003 3.960660 -16.894485 24.893767 0.594448 -2.278657 29.239295 -0.000001 -0.000000 0.000004 0.000002 0.000000 -0.000000 -0.000000 0.000001 -0.000000 -0.000000 0.000000 0.000000 -0.000000 0.000001 0.000000 -0.000000 0.000001 0.000000 -0.000000 0.000001 -0.000000 -0.000000 0.000000 -0.000000 -0.000000 0.000001 0.000000 -0.000000 0.000001 0.000000 -0.000000 0.000001 -0.000000 -0.000000 0.000000 -0.000000 -0.000000 0.000001 -0.000000 -0.000000 0.000001 -0.000000 -0.000000 0.000001 -0.000000 
-0.017502 69.109634 1.259496 -1.580395 7.776984 -2.801072 -0.000000 -0.000001 -0.000000 -6.982736 10.898072 17.362937 15.075699 -8.408575 5.849719 -10.890318 -3.957983 -17.228331 0.000000 0.000000 -0.000000 0.000001 0.000000 0.000001 -3.388683 -6.007567 7.922540 22.555271 -9.463997 3.852947 -18.347012 -3.077743 -6.076322 0.000000 -0.000001 0.000000 0.000001 0.000000 -0.000001 1.682858 -0.738601 2.242846 1.534323 -0.024525 3.561429 1.538244 0.080799 3.532054 2.334885 -2.707759 3.821604 -12.215490 -3.214426 -3.773728 -0.000001 -0.000000 0.000000 -0.000001 -0.000000 0.000000 -0.000001 -0.000000 0.000001 -0.000001 -0.000000 0.000000 -0.000001 -0.000000 0.000000 -0.000001 -0.000000 0.000000 -0.000001 -0.000000 0.000000 -0.000001 -0.000000 0.000000 -0.000001 -0.000000 0.000000 -0.297533 -11.207613 -17.292792 13.467984 -7.361998 -49.832947 -0.000004 -26.683864 -0.000001 -31.952229 8.082346 -10.633360 5.309752 -4.843497 1.898108 7.230342 21.960020 2.178848 -0.000000 0.000002 0.000001 -1.524142 -3.492759 -28.640392 2.679174 4.919211 -57.127627 0.000000 -0.000000 0.000003 1.036961 5.590205 -33.457572 2.679181 4.919228 -57.127637 -0.000000 0.000000 0.000002 4.765004 10.822604 -35.175737 2.694730 4.929215 -57.308777 -0.000000 -0.000000 0.000001 5.002425 18.641159 -38.866768 3.722457 5.451396 -68.632514 0.000001 -0.000000 0.000001 -0.000001 -0.000000 -0.000002 4.746082 -0.772450 5.262775 7.754065 10.072095 57.620446 -0.000007 22.195694 0.000009 -1.635466 1.044230 19.113060 -6.901942 8.181169 -4.018424 7.464508 -23.792675 -2.837987 -0.000002 -0.000001 0.000000 -1.992627 5.229591 14.550671 0.223275 -1.426124 17.794927 0.000001 0.000003 -0.000003 0.314672 -3.835316 19.453634 0.223276 -1.426129 17.794946 -0.000001 0.000002 -0.000001 2.703326 -9.946649 21.118605 0.223719 -1.427525 17.812763 0.000004 -0.000001 0.000003 3.960648 -16.894488 24.893753 0.594453 -2.278660 29.239302 0.000001 0.000001 0.000001 -0.000000 -0.000002 -0.000002 -0.000000 -0.000000 -0.000000 0.000000 -0.000000 0.000001 -0.000000 -0.000000 0.000000 -0.000000 -0.000000 0.000000 -0.000000 -0.000000 -0.000000 0.000000 -0.000000 0.000000 -0.000000 -0.000000 0.000000 -0.000000 -0.000000 0.000000 -0.000000 -0.000000 -0.000000 0.000000 -0.000000 0.000000 -0.000000 -0.000001 -0.000000 -0.000000 -0.000001 -0.000000 -0.000000 -0.000001 -0.000000 
